# AST/ASF file generated using VICON BodyLanguage
# -----------------------------------------------
:version 1.10
:name VICON
:units
  mass 1.0
  length 0.45
  angle deg
:documentation
   .ast/.asf automatically generated from VICON data using
   VICON BodyBuilder and BodyLanguage model FoxedUp or BRILLIANT.MOD
:root
   order TX TY TZ RX RY RZ
   axis XYZ
   position 0 0 0  
   orientation 0 0 0 
:bonedata
  begin
     id 1 
     name lhipjoint
     direction 0.596438 -0.722117 0.35044 
     length 2.43043 
     axis 0 0 0  XYZ
  end
  begin
     id 2 
     name lfemur
     direction 0.34202 -0.939693 0  
     length 7.0339  
     axis 0 0 20  XYZ
    dof rx ry rz
    limits (-160.0 20.0)
           (-70.0 70.0)
           (-60.0 70.0)
  end
  begin
     id 3 
     name ltibia
     direction 0.34202 -0.939693 0   
     length 7.56602   
     axis 0 0 20   XYZ
    dof rx
    limits (-10.0 170.0)
  end
  begin
     id 4 
     name lfoot
     direction 0.0985677 -0.270812 0.957572   
     length 1.85172   
     axis -90 7.62852e-016 20   XYZ
    dof rx rz
    limits (-45.0 90.0)
           (-70.0 20.0)
  end
  begin
     id 5 
     name ltoes
     direction 1.53534e-011 -4.21843e-011 1   
     length 0.929904   
     axis -90 7.62852e-016 20   XYZ
    dof rx
    limits (-90.0 20.0)
  end
  begin
     id 6 
     name rhipjoint
     direction -0.585088 -0.729594 0.354068   
     length 2.40552  
     axis 0 0 0  XYZ 
  end
  begin
     id 7 
     name rfemur
     direction -0.34202 -0.939693 0   
     length 7.12573   
     axis 0 0 -20   XYZ
    dof rx ry rz
    limits (-160.0 20.0)
           (-70.0 70.0)
           (-70.0 60.0)
  end
  begin
     id 8 
     name rtibia
     direction -0.34202 -0.939693 0   
     length 7.35777   
     axis 0 0 -20   XYZ
    dof rx
    limits (-10.0 170.0)
 end
 begin
     id 9 
     name rfoot
     direction -0.120907 -0.33219 0.935431   
     length 2.0994  
     axis -90 -7.62852e-016 -20   XYZ
    dof rx rz
    limits (-45.0 90.0)
           (-20.0 70.0)
  end
  begin
     id 10 
     name rtoes
     direction -1.53577e-011 -4.21787e-011 1   
     length 1.04244   
     axis -90 -7.62852e-016 -20   XYZ
    dof rx
    limits (-90.0 20.0)
  end
  begin
     id 11 
     name lowerback
     direction 0.00268363 0.993603 -0.112896   
     length 2.15839   
     axis 0 0 0   XYZ
    dof rx ry rz
    limits (-20.0 45.0)
           (-30.0 30.0)
           (-30.0 30.0)
  end
  begin
     id 12 
     name upperback
     direction 0.0272563 0.999411 -0.0208618   
     length 2.16443   
     axis 0 0 0   XYZ
    dof rx ry rz
    limits (-20.0 45.0)
           (-30.0 30.0)
           (-30.0 30.0)
  end
  begin
     id 13 
     name thorax
     direction 0.0254655 0.999174 0.0316806   
     length 2.19003   
     axis 0 0 0   XYZ
    dof rx ry rz
    limits (-20.0 45.0)
           (-30.0 30.0)
           (-30.0 30.0)
  end
  begin
     id 14 
     name lowerneck
     direction -0.0102178 0.988048 0.15381   
     length 1.61507   
     axis 0 0 0   XYZ
    dof rx ry rz
    limits (-20.0 45.0)
           (-30.0 30.0)
           (-30.0 30.0)
  end
  begin
     id 15 
     name upperneck
     direction -0.0061965 0.994088 -0.108398   
     length 1.64042   
     axis 0 0 0   XYZ
    dof rx ry rz
    limits (-20.0 45.0)
           (-30.0 30.0)
           (-30.0 30.0)
  end
  begin
     id 16
     name head
     direction -0.00151929 0.998591 -0.0530385  
     length 1.64343  
     axis 0 0 0   XYZ
    dof rx ry rz
    limits (-20.0 45.0)
           (-30.0 30.0)
           (-30.0 30.0)
  end
  begin
     id 17 
     name lclavicle
     direction 0.948974 0.284245 -0.136574  
     length 3.3483  
     axis 0 0 0   XYZ
    dof ry rz
    limits (-20.0 10.0)
           (0.0 20.0)
  end
  begin
     id 18 
     name lhumerus
     direction 1 -4.48961e-011 1.68576e-027   
     length 4.93485   
     axis -180 -30 -90   XYZ
    dof rx ry rz
    limits (-60.0 90.0)
           (-90.0 90.0)
           (-90.0 90.0)
  end
  begin
     id 19
     name lradius
     direction 1 -4.48965e-011 -2.46405e-027   
     length 3.41719   
     axis -180 -30 -90   XYZ
    dof rx
    limits (-10.0 170.0)
  end
  begin
     id 20
     name lwrist
     direction 1 -4.48968e-011 -8.00486e-028   
     length 1.7086   
     axis 3.27501e-015 90 90   XYZ
    dof ry
    limits (-180.0 0.0)
 end
  begin
     id 21 
     name lhand
     direction 1 -4.48977e-011 -1.60161e-027   
     length 0.6241   
     axis 1.02148e-015 90 90   XYZ
    dof rx rz
    limits (-90.0 90.0)
           (-45.0 45.0)
  end
  begin
     id 22 
     name lfingers
     direction 1 -4.49049e-011 -3.21275e-027   
     length 0.503166   
     axis 2.04295e-015 90 90   XYZ
    dof rx
    limits (0.0 90.0)
  end
  begin
     id 23
     name lthumb
     direction 0.707107 -6.34975e-011 0.707107   
     length 0.722448   
     axis -90 45 -1.62303e-014   XYZ
    dof rx rz
    limits (-45.0 45.0)
           (-45.0 45.0)
  end
  begin
     id 24 
     name rclavicle
     direction -0.904485 0.355099 -0.236246   
     length 3.18329  
     axis 0 0 0   XYZ 
    dof ry rz
    limits (-10.0 20.0)
           (-20.0 0.0)
  end
  begin
     id 25 
     name rhumerus
     direction -1 -4.48953e-011 1.32816e-027  
     length 5.22034   
     axis -180 30 90   XYZ
    dof rx ry rz
    limits (-90.0 60.0)
           (-90.0 90.0)
           (-90.0 90.0)
  end
  begin
     id 26 
     name rradius
     direction -1 -4.48965e-011 -3.93727e-027   
     length 3.41809   
     axis -180 30 90   XYZ
    dof rx
    limits (-10.0 170.0)
  end
  begin
     id 27 
     name rwrist
     direction -1 -4.48962e-011 -8.003e-028   
     length 1.70904   
     axis 3.27501e-015 -90 -90   XYZ
    dof ry
    limits (-180.0 0.0)
  end
  begin
     id 28
     name rhand
     direction -1 -4.49008e-011 -1.60365e-027   
     length 0.77534   
     axis 1.02148e-015 -90 -90   XYZ
    dof rx rz
    limits (-90.0 90.0)
           (-45.0 45.0)
  end
  begin
     id 29
     name rfingers
     direction -1 -4.49001e-011 -3.2064e-027   
     length 0.625099   
     axis 2.04295e-015 -90 -90   XYZ
    dof rx
    limits (0.0 90.0)
  end
  begin
     id 30
     name rthumb
     direction -0.707107 -6.34989e-011 0.707107   
     length 0.897521   
     axis -90 -45 1.62303e-014   XYZ
    dof rx rz
    limits (-45.0 45.0)
           (-45.0 45.0)
  end
:hierarchy
  begin
    root lhipjoint rhipjoint lowerback
    lhipjoint lfemur
    lfemur ltibia
    ltibia lfoot
    lfoot ltoes
    rhipjoint rfemur
    rfemur rtibia
    rtibia rfoot
    rfoot rtoes
    lowerback upperback
    upperback thorax
    thorax lowerneck lclavicle rclavicle
    lowerneck upperneck
    upperneck head
    lclavicle lhumerus
    lhumerus lradius
    lradius lwrist
    lwrist lhand lthumb
    lhand lfingers
    rclavicle rhumerus
    rhumerus rradius
    rradius rwrist
    rwrist rhand rthumb
    rhand rfingers
  end

#!OML:ASF \\sashay\E\Suitcase\Project 1\Capture day 1\Session 1\Male1.ASF
:FULLY-SPECIFIED
:DEGREES
23
root 1.00326 17.4122 -33.5168 4.05093 1.32633 -1.72193
lowerback 3.8559 -2.84201 -2.86456
upperback -0.0225151 -3.91896 -0.163744
thorax -2.00104 -1.92718 1.64353
lowerneck -9.32331 -7.75876 -2.37709
upperneck 9.2951 -10.9414 7.01177
head 4.84031 -5.05332 1.75113
rclavicle -3.69739e-014 1.59028e-015
rhumerus -38.3624 -38.0865 -60.54
rradius 16.8713
rwrist 6.72298
rhand -14.982 17.7289
rfingers 7.12502
rthumb 11.1822 -11.9531
lclavicle -3.69739e-014 1.59028e-015
lhumerus -38.0025 11.3405 74.0474
lradius 29.885
lwrist -6.06859
lhand -3.88183 42.4143
lfingers 7.12502
lthumb 21.8674 71.1986
rfemur -11.7845 -3.37016 23.2459
rtibia 30.5956
rfoot -21.2082 -2.87582
rtoes 1.26517
lfemur -11.9416 -5.46111 -21.8218
ltibia 29.7268
lfoot -22.0994 0.580989
ltoes 7.605
24
root 0.996607 17.4172 -33.5173 4.18913 1.08141 -1.87056
lowerback 3.67664 -2.96311 -2.46796
upperback -0.0479406 -4.05758 -0.14302
thorax -1.94595 -2.00097 1.44172
lowerneck -9.29845 -7.60554 -2.47081
upperneck 9.32008 -10.7206 6.98983
head 4.83689 -4.94976 1.77752
rclavicle 6.4605e-015 2.3059e-014
rhumerus -38.0896 -37.9842 -60.9596
rradius 16.877
rwrist 7.18655
rhand -15.4097 17.292
rfingers 7.12502
rthumb 10.7695 -12.4119
lclavicle 6.4605e-015 2.3059e-014
lhumerus -37.8057 12.0988 73.5682
lradius 29.1396
lwrist -6.39659
lhand -3.93157 41.7481
lfingers 7.12502
lthumb 21.8197 70.538
rfemur -11.8549 -3.36969 23.4251
rtibia 30.4117
rfoot -21.0384 -2.57459
rtoes 1.23285
lfemur -12.1336 -4.90933 -21.6059
ltibia 29.7465
lfoot -22.2559 0.228435
ltoes 6.19451
25
root 0.988373 17.4146 -33.5205 4.25529 1.00142 -2.14627
lowerback 3.6092 -3.04108 -2.10349
upperback -0.0802446 -4.14246 -0.0223433
thorax -1.95457 -2.04618 1.36414
lowerneck -9.321 -7.45634 -2.55217
upperneck 9.38183 -10.5233 7.07984
head 4.85955 -4.84837 1.83146
rclavicle -2.25621e-014 1.90833e-014
rhumerus -37.7537 -36.6868 -61.9154
rradius 17.3538
rwrist 6.14533
rhand -15.8128 16.5173
rfingers 7.12502
rthumb 10.3807 -13.2065
lclavicle -2.25621e-014 1.90833e-014
lhumerus -38.2189 11.931 73.6846
lradius 29.913
lwrist -5.81868
lhand -3.7706 42.9108
lfingers 7.12502
lthumb 21.9742 71.6826
rfemur -11.8991 -3.2715 23.7525
rtibia 30.2737
rfoot -21.0091 -2.67732
rtoes 1.15647
lfemur -12.1307 -5.61365 -21.3133
ltibia 29.6812
lfoot -22.2337 0.993517
ltoes 6.51776
26
root 0.981847 17.418 -33.5248 4.2815 1.01045 -2.05747
lowerback 3.58466 -3.03316 -2.23815
upperback -0.0560735 -4.13478 0.0674808
thorax -1.90017 -2.04166 1.52776
lowerneck -9.33389 -7.46295 -2.51033
upperneck 9.47055 -10.5224 6.90849
head 4.877 -4.85388 1.77132
rclavicle 3.00165e-014 -1.59028e-014
rhumerus -37.6862 -36.7933 -61.7467
rradius 17.2691
rwrist 6.42517
rhand -15.6285 17.1585
rfingers 7.12502
rthumb 10.5585 -12.5562
lclavicle 3.00165e-014 -1.59028e-014
lhumerus -37.9065 12.0268 73.8507
lradius 29.4411
lwrist -6.1034
lhand -3.83582 42.6577
lfingers 7.12502
lthumb 21.9116 71.4369
rfemur -11.843 -3.35597 23.6767
rtibia 30.1292
rfoot -21.0225 -2.51101
rtoes 1.42385
lfemur -12.2055 -5.77413 -21.3765
ltibia 29.6902
lfoot -22.1136 0.825934
ltoes 6.34042
27
root 0.977123 17.4215 -33.5242 4.35898 1.08333 -1.94622
lowerback 3.51499 -3.11159 -2.21859
upperback -0.143735 -4.2375 0.0990009
thorax -1.94608 -2.0917 1.55274
lowerneck -9.53102 -7.33131 -2.43005
upperneck 9.79422 -10.3357 6.58517
head 4.9786 -4.76613 1.66361
rclavicle -2.1419e-014 -1.07344e-014
rhumerus -37.8879 -36.6647 -61.6486
rradius 17.3839
rwrist 6.7703
rhand -15.9922 17.3402
rfingers 7.12502
rthumb 10.2077 -12.3921
lclavicle -2.1419e-014 -1.07344e-014
lhumerus -38.212 11.8056 73.9381
lradius 29.8108
lwrist -5.65604
lhand -3.62302 41.7265
lfingers 7.12502
lthumb 22.1159 70.4817
rfemur -11.8476 -3.31254 23.5999
rtibia 30.0213
rfoot -21.0597 -2.72521
rtoes 1.68412
lfemur -12.23 -5.78046 -21.469
ltibia 29.5901
lfoot -22.2475 1.14848
ltoes 5.67469
28
root 0.964302 17.424 -33.5232 4.31741 0.888111 -2.13442
lowerback 3.4318 -3.06902 -2.12095
upperback -0.0807223 -4.17104 0.251083
thorax -1.83305 -2.06111 1.64352
lowerneck -9.49642 -7.25755 -2.54769
upperneck 9.65556 -10.2231 6.69254
head 4.93662 -4.71284 1.72723
rclavicle 4.38817e-014 3.18055e-015
rhumerus -37.6955 -36.2066 -61.9758
rradius 17.5942
rwrist 6.50814
rhand -16.3032 17.3554
rfingers 7.12502
rthumb 9.90764 -12.3915
lclavicle 4.38817e-014 3.18055e-015
lhumerus -38.7623 11.3639 74.3365
lradius 31.203
lwrist -5.3312
lhand -3.2494 42.7998
lfingers 7.12502
lthumb 22.4746 71.512
rfemur -11.7404 -3.15828 23.8466
rtibia 29.9139
rfoot -21.1629 -2.68561
rtoes 2.16027
lfemur -12.1604 -5.61216 -21.2127
ltibia 29.5339
lfoot -22.214 0.909761
ltoes 5.3253
29
root 0.953308 17.4228 -33.5248 4.28571 0.99283 -1.98662
lowerback 3.33328 -3.1 -2.21307
upperback 0.0369462 -4.21287 0.205872
thorax -1.65203 -2.08486 1.6395
lowerneck -9.57947 -7.21602 -2.1364
upperneck 9.62018 -10.1846 6.40342
head 4.90129 -4.69586 1.5771
rclavicle 2.01269e-014 1.19271e-014
rhumerus -37.4949 -36.4045 -62.1513
rradius 17.5482
rwrist 6.83168
rhand -16.74 17.0563
rfingers 7.12502
rthumb 9.48621 -12.7102
lclavicle 2.01269e-014 1.19271e-014
lhumerus -37.982 11.521 74.23
lradius 30.1613
lwrist -5.75014
lhand -3.27792 42.0695
lfingers 7.12502
lthumb 22.4472 70.785
rfemur -11.6839 -3.05868 23.7224
rtibia 29.814
rfoot -21.2052 -2.80832
rtoes 2.97941
lfemur -12.1285 -5.45883 -21.3302
ltibia 29.4923
lfoot -22.3193 1.02598
ltoes 4.41029
30
root 0.94285 17.4277 -33.537 4.30647 0.944966 -2.09273
lowerback 3.42168 -3.11861 -2.05495
upperback 0.00302021 -4.23304 0.260736
thorax -1.74271 -2.09452 1.61562
lowerneck -9.50573 -7.20882 -2.0084
upperneck 9.5269 -10.162 6.20784
head 4.84199 -4.69614 1.50448
rclavicle -1.50082e-014 -3.97569e-016
rhumerus -37.5077 -35.7918 -62.523
rradius 17.8787
rwrist 6.83901
rhand -16.8356 17.0363
rfingers 7.12502
rthumb 9.39395 -12.7344
lclavicle -1.50082e-014 -3.97569e-016
lhumerus -37.9933 11.1878 74.3588
lradius 30.2115
lwrist -5.62825
lhand -3.18216 42.5854
lfingers 7.12502
lthumb 22.5391 71.2898
rfemur -11.6546 -2.73009 23.8946
rtibia 29.6573
rfoot -21.2091 -2.94155
rtoes 3.72829
lfemur -12.2485 -5.36967 -21.1419
ltibia 29.5656
lfoot -22.3613 0.769341
ltoes 4.12777
31
root 0.937878 17.4221 -33.5414 4.33205 0.892608 -2.18478
lowerback 3.37186 -3.06941 -1.89385
upperback 0.0339795 -4.15842 0.338208
thorax -1.69177 -2.05935 1.59808
lowerneck -9.79565 -7.08556 -2.08508
upperneck 9.78218 -10.0149 6.32348
head 4.97321 -4.6066 1.54828
rclavicle 1.78906e-015 -1.11319e-014
rhumerus -37.4151 -35.9194 -62.5083
rradius 17.8625
rwrist 7.04287
rhand -17.3934 17.1322
rfingers 7.12502
rthumb 8.85572 -12.662
lclavicle 1.78906e-015 -1.11319e-014
lhumerus -38.011 10.6603 74.775
lradius 30.9053
lwrist -5.31632
lhand -3.04274 43.0763
lfingers 7.12502
lthumb 22.6729 71.7644
rfemur -11.6685 -2.715 24.0309
rtibia 29.5671
rfoot -21.0865 -2.95224
rtoes 2.9874
lfemur -12.2941 -5.11317 -21.0083
ltibia 29.5582
lfoot -22.5989 1.07904
ltoes 2.34828
32
root 0.926383 17.4281 -33.5462 4.27562 0.954144 -2.28709
lowerback 3.46011 -3.14564 -1.74331
upperback 0.106678 -4.25422 0.384198
thorax -1.67002 -2.10901 1.5684
lowerneck -9.93028 -7.06484 -1.76342
upperneck 9.8183 -9.98292 5.91732
head 4.96763 -4.60064 1.37281
rclavicle 3.22528e-014 -1.43125e-014
rhumerus -37.3463 -35.4049 -62.9499
rradius 18.1871
rwrist 6.76206
rhand -17.5168 17.4402
rfingers 7.12502
rthumb 8.7366 -12.359
lclavicle 3.22528e-014 -1.43125e-014
lhumerus -38.1106 10.3735 74.9005
lradius 31.361
lwrist -5.17877
lhand -3.0565 42.5074
lfingers 7.12502
lthumb 22.6597 71.1971
rfemur -11.5058 -2.34912 24.2231
rtibia 29.4188
rfoot -21.2345 -3.27297
rtoes 3.57617
lfemur -12.2698 -5.1553 -20.8183
ltibia 29.6045
lfoot -22.7264 0.795445
ltoes 2.57736
